{
    "asset" : {
        "generator" : "Khronos glTF Blender I/O v3.3.27",
        "version" : "2.0"
    },
    "extensionsUsed" : [
        "KHR_materials_specular",
        "KHR_materials_ior"
    ],
    "scene" : 0,
    "scenes" : [
        {
            "name" : "Scene",
            "nodes" : [
                0
            ]
        }
    ],
    "nodes" : [
        {
            "mesh" : 0,
            "name" : "MoonSurface",
            "scale" : [
                10.00452709197998,
                1,
                10.00452709197998
            ],
            "translation" : [
                0,
                0.4797336757183075,
                0
            ]
        }
    ],
    "materials" : [
        {
            "doubleSided" : true,
            "extensions" : {
                "KHR_materials_specular" : {
                    "specularColorFactor" : [
                        0.15056237924428378,
                        0.15056237924428378,
                        0.15056237924428378
                    ]
                },
                "KHR_materials_ior" : {
                    "ior" : 1.4500000476837158
                }
            },
            "name" : "GroundWhite",
            "pbrMetallicRoughness" : {
                "baseColorFactor" : [
                    0.45641031861305237,
                    0.5457242131233215,
                    0.6307572722434998,
                    1
                ],
                "metallicFactor" : 0,
                "roughnessFactor" : 0.5
            }
        }
    ],
    "meshes" : [
        {
            "name" : "Plane.001",
            "primitives" : [
                {
                    "attributes" : {
                        "POSITION" : 0,
                        "NORMAL" : 1,
                        "TANGENT" : 2
                    },
                    "indices" : 3,
                    "material" : 0
                }
            ]
        }
    ],
    "accessors" : [
        {
            "bufferView" : 0,
            "componentType" : 5126,
            "count" : 4162,
            "max" : [
                1.0131244659423828,
                1.0640904903411865,
                1.0284667015075684
            ],
            "min" : [
                -1.011455774307251,
                -0.04455164074897766,
                -1.0214482545852661
            ],
            "type" : "VEC3"
        },
        {
            "bufferView" : 1,
            "componentType" : 5126,
            "count" : 4162,
            "type" : "VEC3"
        },
        {
            "bufferView" : 2,
            "componentType" : 5126,
            "count" : 4162,
            "type" : "VEC4"
        },
        {
            "bufferView" : 3,
            "componentType" : 5123,
            "count" : 6510,
            "type" : "SCALAR"
        }
    ],
    "bufferViews" : [
        {
            "buffer" : 0,
            "byteLength" : 49944,
            "byteOffset" : 0,
            "target" : 34962
        },
        {
            "buffer" : 0,
            "byteLength" : 49944,
            "byteOffset" : 49944,
            "target" : 34962
        },
        {
            "buffer" : 0,
            "byteLength" : 66592,
            "byteOffset" : 99888,
            "target" : 34962
        },
        {
            "buffer" : 0,
            "byteLength" : 13020,
            "byteOffset" : 166480,
            "target" : 34963
        }
    ],
    "buffers" : [
        {
            "byteLength" : 179500,
            "uri" : "data:application/octet-stream;base64,"
        }
    ]
}
