<svg
  viewBox="0 0 71.192383 72.131905"
  xmlns="http://www.w3.org/2000/svg"
>
  <style>
    path {
    fill: #7B42F4;
    }

    @media (prefers-color-scheme: dark) {
    path {
    fill: white;
    }
    }
  </style>

  <path
    id="big"
    d="M 22.373931,5.9083163 C 16.328349,5.9626975 -0.68721333,44.002225 8.5464554,58.458938 c 2.2151676,3.468178 5.2090906,6.000123 8.6763336,7.711386 -2.508344,-1.523866 -4.686258,-3.580633 -6.370387,-6.235259 -8.4349245,-13.295601 7.108925,-48.280273 12.631543,-48.330317 9.012724,-0.08162 48.513258,27.273502 37.238376,43.322523 -1.623249,2.310576 -3.666467,4.409117 -5.998223,6.252086 3.32709,-2.309199 6.220192,-5.062443 8.414696,-8.165151 C 75.481355,35.563624 32.240114,5.8195646 22.373931,5.9083163 Z"
  />
  <path
    id="medium"
    d="m 20.715225,23.305492 c -4.296223,0.03868 -16.3881371,27.071007 -9.826337,37.344507 1.574183,2.464621 3.701781,4.263911 6.165736,5.480005 -1.782526,-1.082919 -3.330234,-2.544534 -4.527042,-4.431015 -5.9941812,-9.448366 5.051876,-34.309824 8.976462,-34.34539 6.404789,-0.05799 34.47539,19.381603 26.463024,30.786655 -1.153543,1.641986 -2.605533,3.133294 -4.262569,4.442978 2.36436,-1.641008 4.420309,-3.597568 5.979807,-5.802474 8.7711,-12.401057 -21.957791,-33.538337 -28.969081,-33.475266 z"
  />
  <path
    id="small"
    d="m 19.479769,38.578606 c -2.77341,0.02498 -10.5792918,17.475572 -6.34335,24.10759 1.016206,1.591023 2.389668,2.752544 3.980264,3.53759 -1.150701,-0.699076 -2.149818,-1.642612 -2.922413,-2.86042 -3.869517,-6.099352 3.261217,-22.148557 5.794716,-22.171516 4.134584,-0.03743 22.255439,12.511707 17.083091,19.874191 -0.744665,1.059977 -1.68199,2.022679 -2.751682,2.86814 1.526301,-1.059342 2.85351,-2.32239 3.860238,-3.745758 5.662146,-8.005449 -14.174757,-21.65053 -18.700864,-21.609817 z"
  />
</svg>