<!DOCTYPE svg>
<svg
   version="1.1"
   viewBox="0 0 400 400"
   xmlns="http://www.w3.org/2000/svg"
>
   <g
      transform="translate(-175.67504,-63.999824)">
      <path
         style=""
         d="m 299.62405,455.56645 c -10.29628,-1.17775 -17.68554,-4.60476 -24.51928,-11.37162 -7.23343,-7.16262 -10.1567,-15.10319 -10.02862,-27.24108 0.14075,-13.33886 3.55803,-23.75219 13.12653,-39.99999 12.37069,-21.00606 38.20303,-52.00044 72.39253,-86.85866 8.63088,-8.79969 10.2104,-10.71244 9.63412,-11.66666 -1.08342,-1.79399 -11.91354,-7.16588 -19.60528,-9.7245 -12.06554,-4.01354 -16.87602,-4.75742 -30.33334,-4.69062 -18.48836,0.0918 -29.73548,3.08097 -34.59469,9.19439 -2.17325,2.73419 -7.81098,5.74605 -10.75573,5.74605 -1.96199,0 -6.8353,-4.17976 -7.3735,-6.32414 -0.54625,-2.17641 0.97007,-5.19959 6.35778,-12.67586 14.2237,-19.73758 32.88864,-57.06301 40.60556,-81.20144 7.90634,-24.73095 9.4309,-46.88643 4.39012,-63.79856 -1.57632,-5.28865 -5.77972,-13.07115 -9.45152,-17.499323 -11.30466,-13.633313 -25.19838,-15.659667 -43.84468,-6.394602 -14.0188,6.965725 -26.78362,20.296725 -36.60371,38.227255 -7.87761,14.38375 -14.90571,33.92041 -15.46878,43 -0.19327,3.11667 -0.88987,7.31667 -1.54799,9.33333 -0.65811,2.01667 -1.53514,4.89283 -1.94896,6.39147 -0.83374,3.01943 -2.91976,5.33625 -4.13076,4.58781 -1.61937,-1.00082 -3.44477,-6.59112 -3.77615,-11.56446 -0.31028,-4.65658 -0.10205,-5.80618 2.49024,-13.74815 3.33284,-10.21079 6.11151,-16.67288 13.62986,-31.69775 13.44917,-26.87719 25.65439,-41.88573 42.63248,-52.424394 15.28353,-9.486816 31.60922,-13.141757 44.05413,-9.86269 8.25456,2.174969 16.78792,8.443815 22.62082,16.617891 15.74184,22.060203 16.18987,52.337923 1.38166,93.370713 -7.0517,19.53992 -20.78941,50.98574 -28.06864,64.24954 -2.5521,4.6503 -2.76625,7.14852 -0.59754,6.9707 0.73334,-0.0601 4.33334,-0.78101 8,-1.60196 9.40094,-2.10484 26.2279,-2.13474 36.33243,-0.0645 10.01817,2.05249 20.96773,5.8186 30.62327,10.5329 9.4683,4.62288 8.78049,4.64208 14.71097,-0.41067 16.11855,-13.73294 35.55047,-25.35867 50,-29.91401 10.78535,-3.40017 13.10324,-3.7669 23.66667,-3.74441 8.79444,0.0187 10.79328,0.24041 16.58028,1.83889 23.63391,6.52814 40.84086,23.65566 51.50414,51.26638 3.81345,9.87429 5.79487,19.18772 8.05752,37.87344 0.51696,4.26919 0.55433,4.33261 2.52472,4.28414 1.1,-0.0271 6.38429,-1.21597 11.74286,-2.64204 l 9.74285,-2.59286 2.75715,1.2433 c 4.18234,1.88597 3.69805,3.90921 -1.82643,7.63038 -3.23922,2.18186 -4.88436,2.73501 -12.08309,4.06272 -11.05169,2.03834 -11.97832,2.38932 -12.09082,4.57958 -0.0499,0.97246 -0.17428,2.96812 -0.27628,4.43478 -0.102,1.46667 -0.35926,6.41667 -0.5717,11 -0.85245,18.3921 -5.10662,43.96196 -12.6963,76.31165 -0.86305,3.67859 -2.22898,9.98835 -3.0354,14.02168 -0.80642,4.03334 -1.76493,7.69959 -2.13002,8.14723 -0.36509,0.44763 -2.03576,1.72263 -3.7126,2.83333 -3.79221,2.51185 -7.292,2.70748 -9.29269,0.51944 -1.74055,-1.90358 -3.52753,-5.41761 -3.52753,-6.93681 0,-0.64331 1.92295,-6.88321 4.27322,-13.86644 8.84077,-26.26807 14.33858,-55.36613 15.48516,-81.95774 0.37423,-8.67928 0.28994,-10.20234 -0.6058,-10.94574 -0.87228,-0.72392 -2.96286,-0.22166 -12.92988,3.10644 -22.80481,7.61478 -36.62348,12.91448 -46.2227,17.7272 -11.58098,5.8063 -15.84554,7.32021 -18.83223,6.68541 -4.92595,-1.04697 -5.75169,-4.19571 -2.41955,-9.22633 3.95285,-5.9677 7.68256,-7.84146 23.50957,-11.81093 13.5497,-3.39831 55.10007,-15.80887 56.33219,-16.82571 1.79358,-1.48019 -0.5166,-20.87697 -3.99773,-33.56581 -4.83084,-17.60855 -15.22203,-34.24616 -27.40603,-43.88051 -22.75066,-17.98982 -51.62499,-17.01666 -82.53982,2.78186 -9.56002,6.1224 -19.97973,14.33897 -19.97973,15.75518 0,0.78435 1.67667,2.84945 4.07737,5.02196 8.87704,8.03326 17.3239,21.89328 20.86151,34.23058 7.28063,25.39094 3.85376,54.30902 -9.63395,81.29744 -10.4566,20.92327 -24.12085,37.50076 -39.16686,47.51729 -17.3826,11.57207 -40.2647,18.19244 -56.4714,16.33862 z m 9.45176,-11.99186 c 18.33276,-2.50478 36.06829,-11.79723 50.3475,-26.37936 6.25984,-6.39262 8.25035,-8.86146 13.36351,-16.57481 9.6846,-14.60948 15.29362,-29.4182 17.54387,-46.31864 2.8271,-21.23283 -1.55142,-43.48757 -11.5141,-58.52267 -3.68616,-5.56295 -10.73438,-12.82535 -12.4471,-12.82535 -2.38755,0 -28.30206,26.77182 -45.8176,47.33333 -20.51176,24.0788 -32.54898,41.03185 -40.57734,57.14855 -6.65024,13.35017 -7.68384,17.14145 -7.68384,28.18478 0,8.33079 0.13063,9.27859 1.75678,12.74667 3.91789,8.35568 11.15555,13.45597 21.57656,15.20475 4.80404,0.80618 7.56718,0.80674 13.45176,0.003 z"
      />
   </g>
</svg>